<svg xmlns="http://www.w3.org/2000/svg" xmlns:xlink="http://www.w3.org/1999/xlink" width="500" zoomAndPan="magnify" viewBox="0 0 375 374.999991" height="500" preserveAspectRatio="xMidYMid meet" version="1.0"><defs><g/><clipPath id="2c1f6a88f6"><path d="M 142 269 L 153 269 L 153 283 L 142 283 Z M 142 269 " clip-rule="nonzero"/></clipPath><clipPath id="4cbcf327b7"><path d="M 150.863281 283.023438 L 141.949219 281.792969 L 144.917969 260.246094 L 153.835938 261.476562 Z M 150.863281 283.023438 " clip-rule="nonzero"/></clipPath><clipPath id="aff61074cb"><path d="M 142.109375 281.816406 L 151.027344 283.046875 L 153.996094 261.5 L 145.082031 260.269531 Z M 142.109375 281.816406 " clip-rule="nonzero"/></clipPath><clipPath id="eb9f181c51"><path d="M 145 260 L 153 260 L 153 268 L 145 268 Z M 145 260 " clip-rule="nonzero"/></clipPath><clipPath id="f7a38e6c36"><path d="M 150.863281 283.023438 L 141.949219 281.792969 L 144.917969 260.246094 L 153.835938 261.476562 Z M 150.863281 283.023438 " clip-rule="nonzero"/></clipPath><clipPath id="8bfe4c7ee0"><path d="M 142.109375 281.816406 L 151.027344 283.046875 L 153.996094 261.5 L 145.082031 260.269531 Z M 142.109375 281.816406 " clip-rule="nonzero"/></clipPath><clipPath id="762c659ce1"><path d="M 130 257 L 141 257 L 141 270 L 130 270 Z M 130 257 " clip-rule="nonzero"/></clipPath><clipPath id="52402f2884"><path d="M 137.351562 270.984375 L 128.753906 268.324219 L 135.179688 247.546875 L 143.78125 250.203125 Z M 137.351562 270.984375 " clip-rule="nonzero"/></clipPath><clipPath id="6e6e646e69"><path d="M 137.351562 270.984375 L 128.753906 268.324219 L 135.179688 247.546875 L 143.78125 250.203125 Z M 137.351562 270.984375 " clip-rule="nonzero"/></clipPath><clipPath id="a414c4a855"><path d="M 134 248 L 143 248 L 143 256 L 134 256 Z M 134 248 " clip-rule="nonzero"/></clipPath><clipPath id="7bc108dca9"><path d="M 137.351562 270.984375 L 128.753906 268.324219 L 135.179688 247.546875 L 143.78125 250.203125 Z M 137.351562 270.984375 " clip-rule="nonzero"/></clipPath><clipPath id="cb2ce7d1fc"><path d="M 137.351562 270.984375 L 128.753906 268.324219 L 135.179688 247.546875 L 143.78125 250.203125 Z M 137.351562 270.984375 " clip-rule="nonzero"/></clipPath><clipPath id="397aae524f"><path d="M 132 294 L 145 294 L 145 309 L 132 309 Z M 132 294 " clip-rule="nonzero"/></clipPath><clipPath id="b80294dd1c"><path d="M 146.480469 306.320312 L 137.582031 310.3125 L 127.453125 287.730469 L 136.347656 283.738281 Z M 146.480469 306.320312 " clip-rule="nonzero"/></clipPath><clipPath id="8c5dfad37d"><path d="M 146.480469 306.320312 L 137.582031 310.3125 L 127.453125 287.730469 L 136.347656 283.738281 Z M 146.480469 306.320312 " clip-rule="nonzero"/></clipPath><clipPath id="ed4f739442"><path d="M 129 285 L 139 285 L 139 294 L 129 294 Z M 129 285 " clip-rule="nonzero"/></clipPath><clipPath id="8dcba41045"><path d="M 146.480469 306.320312 L 137.582031 310.3125 L 127.453125 287.730469 L 136.347656 283.738281 Z M 146.480469 306.320312 " clip-rule="nonzero"/></clipPath><clipPath id="ffbaae2b72"><path d="M 146.480469 306.320312 L 137.582031 310.3125 L 127.453125 287.730469 L 136.347656 283.738281 Z M 146.480469 306.320312 " clip-rule="nonzero"/></clipPath><clipPath id="17216dfcc1"><path d="M 165 323 L 184 323 L 184 338 L 165 338 Z M 165 323 " clip-rule="nonzero"/></clipPath><clipPath id="37a8b75b69"><path d="M 185.480469 328.523438 L 181.269531 340.558594 L 151.539062 330.15625 L 155.746094 318.121094 Z M 185.480469 328.523438 " clip-rule="nonzero"/></clipPath><clipPath id="71563c4ea8"><path d="M 185.480469 328.523438 L 181.269531 340.558594 L 151.539062 330.15625 L 155.746094 318.121094 Z M 185.480469 328.523438 " clip-rule="nonzero"/></clipPath><clipPath id="88cd1686b1"><path d="M 153 320 L 164 320 L 164 332 L 153 332 Z M 153 320 " clip-rule="nonzero"/></clipPath><clipPath id="e7d9800e53"><path d="M 185.480469 328.523438 L 181.269531 340.558594 L 151.539062 330.15625 L 155.746094 318.121094 Z M 185.480469 328.523438 " clip-rule="nonzero"/></clipPath><clipPath id="e39c6838cb"><path d="M 185.480469 328.523438 L 181.269531 340.558594 L 151.539062 330.15625 L 155.746094 318.121094 Z M 185.480469 328.523438 " clip-rule="nonzero"/></clipPath><clipPath id="a56074abc7"><path d="M 156 296 L 170 296 L 170 312 L 156 312 Z M 156 296 " clip-rule="nonzero"/></clipPath><clipPath id="bbb7d12a3a"><path d="M 172.574219 307.464844 L 164.804688 313.355469 L 149.847656 293.636719 L 157.617188 287.742188 Z M 172.574219 307.464844 " clip-rule="nonzero"/></clipPath><clipPath id="ab6eb867d3"><path d="M 164.523438 313.566406 L 172.292969 307.675781 L 157.335938 287.957031 L 149.570312 293.847656 Z M 164.523438 313.566406 " clip-rule="nonzero"/></clipPath><clipPath id="494d2aa338"><path d="M 151 289 L 161 289 L 161 299 L 151 299 Z M 151 289 " clip-rule="nonzero"/></clipPath><clipPath id="55501759bc"><path d="M 172.574219 307.464844 L 164.804688 313.355469 L 149.847656 293.636719 L 157.617188 287.742188 Z M 172.574219 307.464844 " clip-rule="nonzero"/></clipPath><clipPath id="ee288ae646"><path d="M 164.523438 313.566406 L 172.292969 307.675781 L 157.335938 287.957031 L 149.570312 293.847656 Z M 164.523438 313.566406 " clip-rule="nonzero"/></clipPath><clipPath id="01f1d897c4"><path d="M 216 330 L 236 330 L 236 345 L 216 345 Z M 216 330 " clip-rule="nonzero"/></clipPath><clipPath id="671c43c909"><path d="M 235.664062 328.789062 L 237.546875 342.914062 L 203.347656 347.464844 L 201.46875 333.335938 Z M 235.664062 328.789062 " clip-rule="nonzero"/></clipPath><clipPath id="dc0e3edc5f"><path d="M 235.664062 328.789062 L 237.546875 342.914062 L 203.347656 347.464844 L 201.46875 333.335938 Z M 235.664062 328.789062 " clip-rule="nonzero"/></clipPath><clipPath id="8d75a5dd0a"><path d="M 202 333 L 213 333 L 213 346 L 202 346 Z M 202 333 " clip-rule="nonzero"/></clipPath><clipPath id="a223728edd"><path d="M 235.664062 328.789062 L 237.546875 342.914062 L 203.347656 347.464844 L 201.46875 333.335938 Z M 235.664062 328.789062 " clip-rule="nonzero"/></clipPath><clipPath id="3f63d8ba99"><path d="M 235.664062 328.789062 L 237.546875 342.914062 L 203.347656 347.464844 L 201.46875 333.335938 Z M 235.664062 328.789062 " clip-rule="nonzero"/></clipPath><clipPath id="9433755b6f"><path d="M 227 309 L 248 309 L 248 324 L 227 324 Z M 227 309 " clip-rule="nonzero"/></clipPath><clipPath id="2b197f20b9"><path d="M 246.570312 307.484375 L 248.671875 321.578125 L 214.546875 326.664062 L 212.449219 312.566406 Z M 246.570312 307.484375 " clip-rule="nonzero"/></clipPath><clipPath id="463d167ef6"><path d="M 248.617188 321.21875 L 246.515625 307.125 L 212.394531 312.207031 L 214.496094 326.304688 Z M 248.617188 321.21875 " clip-rule="nonzero"/></clipPath><clipPath id="9e3c47031a"><path d="M 213 312 L 224 312 L 224 325 L 213 325 Z M 213 312 " clip-rule="nonzero"/></clipPath><clipPath id="d60f43f229"><path d="M 246.570312 307.484375 L 248.671875 321.578125 L 214.546875 326.664062 L 212.449219 312.566406 Z M 246.570312 307.484375 " clip-rule="nonzero"/></clipPath><clipPath id="50c1d05bc4"><path d="M 248.617188 321.21875 L 246.515625 307.125 L 212.394531 312.207031 L 214.496094 326.304688 Z M 248.617188 321.21875 " clip-rule="nonzero"/></clipPath><clipPath id="a384bafcc7"><path d="M 189 311 L 207 311 L 207 325 L 189 325 Z M 189 311 " clip-rule="nonzero"/></clipPath><clipPath id="45a487e5f3"><path d="M 208.425781 313.347656 L 206.351562 325.929688 L 175.269531 320.800781 L 177.347656 308.222656 Z M 208.425781 313.347656 " clip-rule="nonzero"/></clipPath><clipPath id="69f08cc278"><path d="M 206.367188 325.8125 L 208.445312 313.234375 L 177.367188 308.105469 L 175.289062 320.683594 Z M 206.367188 325.8125 " clip-rule="nonzero"/></clipPath><clipPath id="17c0a1f11e"><path d="M 176 310 L 186 310 L 186 322 L 176 322 Z M 176 310 " clip-rule="nonzero"/></clipPath><clipPath id="f3dba7d0df"><path d="M 208.425781 313.347656 L 206.351562 325.929688 L 175.269531 320.800781 L 177.347656 308.222656 Z M 208.425781 313.347656 " clip-rule="nonzero"/></clipPath><clipPath id="07862b4072"><path d="M 206.367188 325.8125 L 208.445312 313.234375 L 177.367188 308.105469 L 175.289062 320.683594 Z M 206.367188 325.8125 " clip-rule="nonzero"/></clipPath><clipPath id="866729ea16"><path d="M 263 314 L 282 314 L 282 330 L 263 330 Z M 263 314 " clip-rule="nonzero"/></clipPath><clipPath id="839e15068c"><path d="M 278.234375 311.324219 L 284.566406 322.390625 L 257.222656 338.035156 L 250.890625 326.96875 Z M 278.234375 311.324219 " clip-rule="nonzero"/></clipPath><clipPath id="47801a1ebe"><path d="M 278.234375 311.324219 L 284.566406 322.390625 L 257.222656 338.035156 L 250.890625 326.96875 Z M 278.234375 311.324219 " clip-rule="nonzero"/></clipPath><clipPath id="138cef2b7e"><path d="M 253 323 L 265 323 L 265 335 L 253 335 Z M 253 323 " clip-rule="nonzero"/></clipPath><clipPath id="36968544b4"><path d="M 278.234375 311.324219 L 284.566406 322.390625 L 257.222656 338.035156 L 250.890625 326.96875 Z M 278.234375 311.324219 " clip-rule="nonzero"/></clipPath><clipPath id="2bfcd2addf"><path d="M 278.234375 311.324219 L 284.566406 322.390625 L 257.222656 338.035156 L 250.890625 326.96875 Z M 278.234375 311.324219 " clip-rule="nonzero"/></clipPath><clipPath id="5919246ccd"><path d="M 262 291 L 281 291 L 281 308 L 262 308 Z M 262 291 " clip-rule="nonzero"/></clipPath><clipPath id="e8ff2b0c30"><path d="M 275.164062 287.835938 L 282.957031 297.925781 L 258.023438 317.175781 L 250.230469 307.085938 Z M 275.164062 287.835938 " clip-rule="nonzero"/></clipPath><clipPath id="a2f57ec0a5"><path d="M 282.886719 297.832031 L 275.09375 287.742188 L 250.160156 306.992188 L 257.953125 317.082031 Z M 282.886719 297.832031 " clip-rule="nonzero"/></clipPath><clipPath id="1911050058"><path d="M 253 302 L 265 302 L 265 314 L 253 314 Z M 253 302 " clip-rule="nonzero"/></clipPath><clipPath id="fc0e4f5480"><path d="M 275.164062 287.835938 L 282.957031 297.925781 L 258.023438 317.175781 L 250.230469 307.085938 Z M 275.164062 287.835938 " clip-rule="nonzero"/></clipPath><clipPath id="2f91ed87c0"><path d="M 282.886719 297.832031 L 275.09375 287.742188 L 250.160156 306.992188 L 257.953125 317.082031 Z M 282.886719 297.832031 " clip-rule="nonzero"/></clipPath><clipPath id="06a0020c0f"><path d="M 290 277 L 301 277 L 301 291 L 290 291 Z M 290 277 " clip-rule="nonzero"/></clipPath><clipPath id="2d8028d754"><path d="M 291.367188 276.4375 L 301.085938 277.226562 L 299.085938 301.894531 L 289.367188 301.109375 Z M 291.367188 276.4375 " clip-rule="nonzero"/></clipPath><clipPath id="179c3b0590"><path d="M 291.367188 276.4375 L 301.085938 277.226562 L 299.085938 301.894531 L 289.367188 301.109375 Z M 291.367188 276.4375 " clip-rule="nonzero"/></clipPath><clipPath id="af3eca6538"><path d="M 290 294 L 300 294 L 300 302 L 290 302 Z M 290 294 " clip-rule="nonzero"/></clipPath><clipPath id="9aedee3c41"><path d="M 291.367188 276.4375 L 301.085938 277.226562 L 299.085938 301.894531 L 289.367188 301.109375 Z M 291.367188 276.4375 " clip-rule="nonzero"/></clipPath><clipPath id="21f6f9cc82"><path d="M 291.367188 276.4375 L 301.085938 277.226562 L 299.085938 301.894531 L 289.367188 301.109375 Z M 291.367188 276.4375 " clip-rule="nonzero"/></clipPath><clipPath id="fa84545801"><path d="M 273 262 L 284 262 L 284 277 L 273 277 Z M 273 262 " clip-rule="nonzero"/></clipPath><clipPath id="d531b166fc"><path d="M 272.480469 263.011719 L 282.1875 262.070312 L 284.578125 286.703125 L 274.875 287.644531 Z M 272.480469 263.011719 " clip-rule="nonzero"/></clipPath><clipPath id="ec30e60b70"><path d="M 282.535156 262.035156 L 272.832031 262.976562 L 275.226562 287.613281 L 284.929688 286.667969 Z M 282.535156 262.035156 " clip-rule="nonzero"/></clipPath><clipPath id="980e022cfb"><path d="M 275 280 L 284 280 L 284 288 L 275 288 Z M 275 280 " clip-rule="nonzero"/></clipPath><clipPath id="53aaa2694c"><path d="M 272.480469 263.011719 L 282.1875 262.070312 L 284.578125 286.703125 L 274.875 287.644531 Z M 272.480469 263.011719 " clip-rule="nonzero"/></clipPath><clipPath id="6cb9c75219"><path d="M 282.535156 262.035156 L 272.832031 262.976562 L 275.226562 287.613281 L 284.929688 286.667969 Z M 282.535156 262.035156 " clip-rule="nonzero"/></clipPath><clipPath id="d984c7efa0"><path d="M 281 246 L 293 246 L 293 259 L 281 259 Z M 281 246 " clip-rule="nonzero"/></clipPath><clipPath id="fb6823820a"><path d="M 279.289062 248.910156 L 287.015625 244.292969 L 298.171875 262.964844 L 290.445312 267.582031 Z M 279.289062 248.910156 " clip-rule="nonzero"/></clipPath><clipPath id="fa71a23017"><path d="M 279.289062 248.910156 L 287.015625 244.292969 L 298.171875 262.964844 L 290.445312 267.582031 Z M 279.289062 248.910156 " clip-rule="nonzero"/></clipPath><clipPath id="31c7cb0341"><path d="M 288 258 L 297 258 L 297 266 L 288 266 Z M 288 258 " clip-rule="nonzero"/></clipPath><clipPath id="09652e924b"><path d="M 279.289062 248.910156 L 287.015625 244.292969 L 298.171875 262.964844 L 290.445312 267.582031 Z M 279.289062 248.910156 " clip-rule="nonzero"/></clipPath><clipPath id="ab177820d1"><path d="M 279.289062 248.910156 L 287.015625 244.292969 L 298.171875 262.964844 L 290.445312 267.582031 Z M 279.289062 248.910156 " clip-rule="nonzero"/></clipPath><clipPath id="5159844c63"><path d="M 260 241 L 272 241 L 272 254 L 260 254 Z M 260 241 " clip-rule="nonzero"/></clipPath><clipPath id="1ad69b28f4"><path d="M 257.390625 245.484375 L 263.605469 238.976562 L 279.335938 254 L 273.117188 260.507812 Z M 257.390625 245.484375 " clip-rule="nonzero"/></clipPath><clipPath id="a361b995ab"><path d="M 263.492188 239.09375 L 257.277344 245.601562 L 273.003906 260.625 L 279.222656 254.117188 Z M 263.492188 239.09375 " clip-rule="nonzero"/></clipPath><clipPath id="1cd76635bf"><path d="M 269 250 L 278 250 L 278 259 L 269 259 Z M 269 250 " clip-rule="nonzero"/></clipPath><clipPath id="e745d8127e"><path d="M 257.390625 245.484375 L 263.605469 238.976562 L 279.335938 254 L 273.117188 260.507812 Z M 257.390625 245.484375 " clip-rule="nonzero"/></clipPath><clipPath id="39d1f45a59"><path d="M 263.492188 239.09375 L 257.277344 245.601562 L 273.003906 260.625 L 279.222656 254.117188 Z M 263.492188 239.09375 " clip-rule="nonzero"/></clipPath><clipPath id="e40bfd3e16"><path d="M 92 45 L 258 45 L 258 289 L 92 289 Z M 92 45 " clip-rule="nonzero"/></clipPath><clipPath id="96455c6d3d"><path d="M 73.558594 67.082031 L 240.792969 27.957031 L 297.175781 268.949219 L 129.941406 308.074219 Z M 73.558594 67.082031 " clip-rule="nonzero"/></clipPath><clipPath id="9d6af7b6c6"><path d="M 73.558594 67.082031 L 240.792969 27.957031 L 297.175781 268.949219 L 129.941406 308.074219 Z M 73.558594 67.082031 " clip-rule="nonzero"/></clipPath></defs><g clip-path="url(#2c1f6a88f6)"><g clip-path="url(#4cbcf327b7)"><g clip-path="url(#aff61074cb)"><path fill="#004aad" d="M 143.191406 273.976562 C 142.621094 278.105469 143.136719 281.292969 145.496094 281.910156 C 148.425781 282.679688 151.375 279.3125 151.945312 275.183594 C 152.15625 273.652344 152.082031 272.195312 151.785156 270.945312 L 144.496094 269.941406 C 143.867188 271.0625 143.402344 272.449219 143.191406 273.976562 " fill-opacity="1" fill-rule="nonzero"/></g></g></g><g clip-path="url(#eb9f181c51)"><g clip-path="url(#f7a38e6c36)"><g clip-path="url(#8bfe4c7ee0)"><path fill="#004aad" d="M 152.289062 267.207031 L 152.601562 264.933594 C 152.878906 262.925781 151.476562 261.078125 149.46875 260.800781 C 147.460938 260.523438 145.609375 261.925781 145.335938 263.933594 L 145.019531 266.207031 L 152.289062 267.207031 " fill-opacity="1" fill-rule="nonzero"/></g></g></g><g clip-path="url(#762c659ce1)"><g clip-path="url(#52402f2884)"><g clip-path="url(#6e6e646e69)"><path fill="#004aad" d="M 139.683594 263.449219 C 138.453125 267.421875 136.644531 270.082031 134.25 269.644531 C 131.28125 269.105469 130.035156 264.816406 131.261719 260.847656 C 131.71875 259.375 132.402344 258.085938 133.199219 257.082031 L 140.210938 259.253906 C 140.300781 260.53125 140.136719 261.976562 139.683594 263.449219 " fill-opacity="1" fill-rule="nonzero"/></g></g></g><g clip-path="url(#a414c4a855)"><g clip-path="url(#7bc108dca9)"><g clip-path="url(#cb2ce7d1fc)"><path fill="#004aad" d="M 134.320312 253.492188 L 134.996094 251.308594 C 135.59375 249.375 137.640625 248.296875 139.574219 248.894531 C 141.503906 249.488281 142.582031 251.539062 141.988281 253.46875 L 141.308594 255.65625 L 134.320312 253.492188 " fill-opacity="1" fill-rule="nonzero"/></g></g></g><g clip-path="url(#397aae524f)"><g clip-path="url(#b80294dd1c)"><g clip-path="url(#8c5dfad37d)"><path fill="#004aad" d="M 142.777344 298.074219 C 144.726562 302.417969 145.1875 306.082031 142.796875 307.519531 C 139.832031 309.300781 135.511719 306.554688 133.5625 302.207031 C 132.835938 300.597656 132.449219 298.972656 132.375 297.503906 L 140.050781 294.0625 C 141.097656 295.089844 142.054688 296.460938 142.777344 298.074219 " fill-opacity="1" fill-rule="nonzero"/></g></g></g><g clip-path="url(#ed4f739442)"><g clip-path="url(#8dcba41045)"><g clip-path="url(#ffbaae2b72)"><path fill="#004aad" d="M 130.625 293.566406 L 129.550781 291.171875 C 128.601562 289.058594 129.546875 286.578125 131.660156 285.628906 C 133.773438 284.683594 136.253906 285.625 137.203125 287.738281 L 138.277344 290.132812 L 130.625 293.566406 " fill-opacity="1" fill-rule="nonzero"/></g></g></g><g clip-path="url(#17216dfcc1)"><g clip-path="url(#37a8b75b69)"><g clip-path="url(#71563c4ea8)"><path fill="#004aad" d="M 174.8125 324.789062 C 180.433594 326.757812 184.152344 329.488281 183.402344 332.894531 C 182.472656 337.121094 176.261719 338.683594 170.640625 336.714844 C 168.554688 335.984375 166.746094 334.941406 165.351562 333.746094 L 168.824219 323.816406 C 170.660156 323.75 172.726562 324.0625 174.8125 324.789062 " fill-opacity="1" fill-rule="nonzero"/></g></g></g><g clip-path="url(#88cd1686b1)"><g clip-path="url(#e7d9800e53)"><g clip-path="url(#e39c6838cb)"><path fill="#004aad" d="M 160.265625 331.949219 L 157.167969 330.867188 C 154.4375 329.910156 152.996094 326.917969 153.953125 324.183594 C 154.90625 321.449219 157.898438 320.011719 160.632812 320.964844 L 163.730469 322.050781 L 160.265625 331.949219 " fill-opacity="1" fill-rule="nonzero"/></g></g></g><g clip-path="url(#a56074abc7)"><g clip-path="url(#bbb7d12a3a)"><g clip-path="url(#ab6eb867d3)"><path fill="#004aad" d="M 159.0625 306.363281 C 161.941406 310.160156 164.933594 312.320312 167.339844 310.910156 C 170.328125 309.164062 169.988281 304.054688 167.109375 300.261719 C 166.042969 298.851562 164.804688 297.730469 163.550781 296.964844 L 156.847656 302.046875 C 157.25 303.460938 157.996094 304.957031 159.0625 306.363281 " fill-opacity="1" fill-rule="nonzero"/></g></g></g><g clip-path="url(#494d2aa338)"><g clip-path="url(#55501759bc)"><g clip-path="url(#ee288ae646)"><path fill="#004aad" d="M 160.9375 293.539062 L 159.351562 291.445312 C 157.953125 289.601562 155.320312 289.242188 153.476562 290.640625 C 151.628906 292.039062 151.269531 294.671875 152.667969 296.515625 L 154.253906 298.605469 L 160.9375 293.539062 " fill-opacity="1" fill-rule="nonzero"/></g></g></g><g clip-path="url(#01f1d897c4)"><g clip-path="url(#671c43c909)"><g clip-path="url(#dc0e3edc5f)"><path fill="#004aad" d="M 223.339844 330.429688 C 229.828125 329.566406 234.835938 330.394531 235.789062 334.109375 C 236.972656 338.71875 231.660156 343.332031 225.171875 344.195312 C 222.761719 344.515625 220.46875 344.386719 218.507812 343.910156 L 216.984375 332.445312 C 218.75 331.46875 220.933594 330.75 223.339844 330.429688 " fill-opacity="1" fill-rule="nonzero"/></g></g></g><g clip-path="url(#8d75a5dd0a)"><g clip-path="url(#a223728edd)"><g clip-path="url(#3f63d8ba99)"><path fill="#004aad" d="M 212.632812 344.671875 L 209.054688 345.148438 C 205.898438 345.570312 203 343.351562 202.582031 340.195312 C 202.160156 337.039062 204.378906 334.140625 207.535156 333.71875 L 211.113281 333.246094 L 212.632812 344.671875 " fill-opacity="1" fill-rule="nonzero"/></g></g></g><g clip-path="url(#9433755b6f)"><g clip-path="url(#2b197f20b9)"><g clip-path="url(#463d167ef6)"><path fill="#004aad" d="M 236.316406 323.050781 C 242.792969 322.085938 247.375 319.902344 247.265625 316.070312 C 247.128906 311.3125 240.746094 308.347656 234.269531 309.3125 C 231.871094 309.671875 229.699219 310.429688 227.949219 311.429688 L 229.652344 322.867188 C 231.621094 323.316406 233.917969 323.40625 236.316406 323.050781 " fill-opacity="1" fill-rule="nonzero"/></g></g></g><g clip-path="url(#9e3c47031a)"><g clip-path="url(#d60f43f229)"><g clip-path="url(#50c1d05bc4)"><path fill="#004aad" d="M 222.089844 312.320312 L 218.519531 312.851562 C 215.371094 313.324219 213.199219 316.253906 213.667969 319.40625 C 214.136719 322.554688 217.070312 324.726562 220.21875 324.257812 L 223.789062 323.726562 L 222.089844 312.320312 " fill-opacity="1" fill-rule="nonzero"/></g></g></g><g clip-path="url(#a384bafcc7)"><g clip-path="url(#45a487e5f3)"><g clip-path="url(#69f08cc278)"><path fill="#004aad" d="M 195.21875 323.972656 C 201.09375 324.941406 205.667969 324.328125 206.640625 320.980469 C 207.851562 316.824219 203.152344 312.476562 197.273438 311.507812 C 195.09375 311.148438 193.003906 311.199219 191.210938 311.578125 L 189.496094 321.957031 C 191.074219 322.894531 193.039062 323.613281 195.21875 323.972656 " fill-opacity="1" fill-rule="nonzero"/></g></g></g><g clip-path="url(#17c0a1f11e)"><g clip-path="url(#f3dba7d0df)"><g clip-path="url(#07862b4072)"><path fill="#004aad" d="M 185.886719 310.714844 L 182.648438 310.179688 C 179.792969 309.710938 177.09375 311.644531 176.621094 314.5 C 176.148438 317.359375 178.082031 320.058594 180.941406 320.53125 L 184.179688 321.0625 L 185.886719 310.714844 " fill-opacity="1" fill-rule="nonzero"/></g></g></g><g clip-path="url(#866729ea16)"><g clip-path="url(#839e15068c)"><g clip-path="url(#47801a1ebe)"><path fill="#004aad" d="M 268.421875 316.9375 C 273.59375 313.980469 278.09375 312.960938 280.175781 315.761719 C 282.757812 319.234375 279.867188 324.945312 274.695312 327.902344 C 272.777344 329 270.804688 329.683594 268.988281 329.953125 L 263.761719 320.820312 C 264.917969 319.394531 266.507812 318.035156 268.421875 316.9375 " fill-opacity="1" fill-rule="nonzero"/></g></g></g><g clip-path="url(#138cef2b7e)"><g clip-path="url(#36968544b4)"><g clip-path="url(#2bfcd2addf)"><path fill="#004aad" d="M 264.300781 332.617188 L 261.453125 334.246094 C 258.9375 335.683594 255.734375 334.8125 254.296875 332.296875 C 252.855469 329.785156 253.730469 326.578125 256.242188 325.140625 L 259.089844 323.511719 L 264.300781 332.617188 " fill-opacity="1" fill-rule="nonzero"/></g></g></g><g clip-path="url(#5919246ccd)"><g clip-path="url(#e8ff2b0c30)"><g clip-path="url(#a2f57ec0a5)"><path fill="#004aad" d="M 273.9375 304.738281 C 278.652344 301.101562 281.320312 297.335938 279.535156 294.339844 C 277.316406 290.625 270.933594 291.101562 266.21875 294.742188 C 264.46875 296.089844 263.082031 297.652344 262.136719 299.226562 L 268.566406 307.554688 C 270.324219 307.039062 272.1875 306.089844 273.9375 304.738281 " fill-opacity="1" fill-rule="nonzero"/></g></g></g><g clip-path="url(#1911050058)"><g clip-path="url(#fc0e4f5480)"><g clip-path="url(#2f91ed87c0)"><path fill="#004aad" d="M 257.878906 302.535156 L 255.28125 304.539062 C 252.988281 306.308594 252.5625 309.601562 254.332031 311.894531 C 256.105469 314.1875 259.398438 314.613281 261.691406 312.839844 L 264.285156 310.835938 L 257.878906 302.535156 " fill-opacity="1" fill-rule="nonzero"/></g></g></g><g clip-path="url(#06a0020c0f)"><g clip-path="url(#2d8028d754)"><g clip-path="url(#179c3b0590)"><path fill="#004aad" d="M 290.636719 285.449219 C 291.023438 280.703125 292.382812 277.273438 295.171875 277.164062 C 298.628906 277.03125 301.09375 281.519531 300.707031 286.265625 C 300.5625 288.027344 300.121094 289.636719 299.480469 290.957031 L 291.09375 290.277344 C 290.671875 288.871094 290.496094 287.210938 290.636719 285.449219 " fill-opacity="1" fill-rule="nonzero"/></g></g></g><g clip-path="url(#af3eca6538)"><g clip-path="url(#9aedee3c41)"><g clip-path="url(#21f6f9cc82)"><path fill="#004aad" d="M 299.117188 295.253906 L 298.90625 297.871094 C 298.71875 300.179688 296.695312 301.898438 294.386719 301.710938 C 292.078125 301.523438 290.359375 299.5 290.546875 297.191406 L 290.757812 294.578125 L 299.117188 295.253906 " fill-opacity="1" fill-rule="nonzero"/></g></g></g><g clip-path="url(#fa84545801)"><g clip-path="url(#d531b166fc)"><g clip-path="url(#ec30e60b70)"><path fill="#004aad" d="M 283.410156 271.03125 C 282.949219 266.292969 281.535156 262.882812 278.746094 262.820312 C 275.285156 262.742188 272.894531 267.269531 273.355469 272.011719 C 273.527344 273.769531 273.996094 275.371094 274.65625 276.679688 L 283.03125 275.867188 C 283.429688 274.457031 283.582031 272.792969 283.410156 271.03125 " fill-opacity="1" fill-rule="nonzero"/></g></g></g><g clip-path="url(#980e022cfb)"><g clip-path="url(#53aaa2694c)"><g clip-path="url(#6cb9c75219)"><path fill="#004aad" d="M 275.085938 280.972656 L 275.339844 283.582031 C 275.566406 285.886719 277.613281 287.574219 279.921875 287.351562 C 282.226562 287.128906 283.914062 285.078125 283.6875 282.773438 L 283.433594 280.160156 L 275.085938 280.972656 " fill-opacity="1" fill-rule="nonzero"/></g></g></g><g clip-path="url(#d984c7efa0)"><g clip-path="url(#fb6823820a)"><g clip-path="url(#fa71a23017)"><path fill="#004aad" d="M 283.335938 255.675781 C 281.203125 252.109375 280.433594 248.984375 282.359375 247.496094 C 284.746094 245.652344 288.769531 247.589844 290.902344 251.15625 C 291.691406 252.480469 292.191406 253.851562 292.40625 255.113281 L 286.105469 258.875 C 285.09375 258.089844 284.125 257 283.335938 255.675781 " fill-opacity="1" fill-rule="nonzero"/></g></g></g><g clip-path="url(#31c7cb0341)"><g clip-path="url(#09652e924b)"><g clip-path="url(#ab177820d1)"><path fill="#004aad" d="M 294.324219 258.347656 L 295.5 260.3125 C 296.535156 262.046875 295.96875 264.292969 294.234375 265.328125 C 292.5 266.363281 290.253906 265.800781 289.21875 264.066406 L 288.042969 262.097656 L 294.324219 258.347656 " fill-opacity="1" fill-rule="nonzero"/></g></g></g><g clip-path="url(#5159844c63)"><g clip-path="url(#1ad69b28f4)"><g clip-path="url(#a361b995ab)"><path fill="#004aad" d="M 269.214844 244.558594 C 266.203125 241.683594 263.316406 240.230469 261.433594 241.785156 C 259.097656 243.707031 260.097656 248.070312 263.113281 250.949219 C 264.230469 252.015625 265.457031 252.8125 266.644531 253.300781 L 271.726562 247.980469 C 271.183594 246.816406 270.332031 245.625 269.214844 244.558594 " fill-opacity="1" fill-rule="nonzero"/></g></g></g><g clip-path="url(#1cd76635bf)"><g clip-path="url(#e745d8127e)"><g clip-path="url(#39d1f45a59)"><path fill="#004aad" d="M 269.378906 255.898438 L 271.039062 257.484375 C 272.503906 258.882812 274.824219 258.828125 276.222656 257.363281 C 277.621094 255.898438 277.570312 253.578125 276.105469 252.175781 L 274.445312 250.59375 L 269.378906 255.898438 " fill-opacity="1" fill-rule="nonzero"/></g></g></g><g clip-path="url(#e40bfd3e16)"><g clip-path="url(#96455c6d3d)"><g clip-path="url(#9d6af7b6c6)"><path fill="#ef4565" d="M 186 170.617188 C 162.410156 176.132812 138.816406 161.484375 133.296875 137.898438 C 127.78125 114.3125 142.429688 90.71875 166.015625 85.199219 C 189.601562 79.683594 213.195312 94.328125 218.714844 117.914062 C 224.234375 141.503906 209.585938 165.097656 186 170.617188 Z M 157.199219 47.515625 C 112.800781 57.902344 82.042969 103.183594 95.613281 146.714844 C 97.050781 151.3125 100.441406 160.375 102.667969 164.648438 C 105.40625 169.90625 112.101562 179.753906 115.78125 184.402344 C 137.972656 212.425781 213.625 288.691406 213.625 288.691406 C 213.625 288.691406 247.667969 186.800781 255.042969 151.820312 C 256.265625 146.027344 257.796875 134.242188 257.921875 128.324219 C 258.023438 123.503906 257.140625 113.863281 256.398438 109.097656 C 249.382812 64.042969 201.597656 37.128906 157.199219 47.515625 " fill-opacity="1" fill-rule="nonzero"/></g></g></g><g fill="#004aad" fill-opacity="1"><g transform="translate(149.446679, 147.089145)"><g><path d="M 19.453125 -11.34375 C 19.609375 -11.4375 19.710938 -11.550781 19.765625 -11.6875 L 19.828125 -11.859375 L 19.859375 -12 C 20.265625 -13.40625 20.628906 -15.285156 20.953125 -17.640625 C 21.160156 -19.210938 21.554688 -20.960938 22.140625 -22.890625 C 22.691406 -24.867188 23.132812 -26.53125 23.46875 -27.875 C 23.601562 -28.507812 24.101562 -29.175781 24.96875 -29.875 C 25.195312 -30.0625 25.445312 -30.050781 25.71875 -29.84375 C 25.925781 -29.65625 26.164062 -29.609375 26.4375 -29.703125 C 26.84375 -29.835938 27.285156 -29.804688 27.765625 -29.609375 L 28.03125 -29.53125 L 28.3125 -29.5 L 30.15625 -29.125 C 32.238281 -28.644531 33.644531 -27.316406 34.375 -25.140625 C 35.507812 -21.867188 36.328125 -18.800781 36.828125 -15.9375 C 37.035156 -14.71875 37.375 -13.648438 37.84375 -12.734375 L 38.265625 -11.75 L 38.703125 -10.765625 L 38.765625 -10.703125 L 38.875 -10.65625 C 38.988281 -10.632812 39.066406 -10.703125 39.109375 -10.859375 L 39.546875 -13.15625 C 39.710938 -14.039062 39.816406 -14.820312 39.859375 -15.5 L 40 -17.28125 L 40.171875 -19.078125 L 40.40625 -21.25 L 40.671875 -23.40625 L 41.015625 -25.6875 L 41.296875 -27.96875 L 41.359375 -28.546875 L 41.390625 -29.09375 C 41.328125 -29.519531 41.316406 -30.050781 41.359375 -30.6875 L 41.421875 -32.234375 C 41.441406 -33.679688 41.785156 -35.28125 42.453125 -37.03125 C 42.679688 -37.625 43.171875 -38.046875 43.921875 -38.296875 C 44.460938 -38.472656 44.753906 -38.265625 44.796875 -37.671875 L 44.875 -35.328125 C 44.875 -34.078125 44.925781 -32.988281 45.03125 -32.0625 C 45.175781 -30.675781 45.144531 -29.367188 44.9375 -28.140625 C 44.820312 -27.566406 44.753906 -26.75 44.734375 -25.6875 C 44.679688 -24.207031 44.488281 -22.46875 44.15625 -20.46875 L 43.84375 -18.5625 L 43.578125 -16.6875 C 43.191406 -13.644531 42.488281 -10.125 41.46875 -6.125 C 41.300781 -5.351562 41.300781 -4.765625 41.46875 -4.359375 C 41.625 -4.035156 41.554688 -3.726562 41.265625 -3.4375 C 40.941406 -3.125 40.800781 -2.679688 40.84375 -2.109375 L 40.875 -1.53125 C 40.832031 -1.050781 40.609375 -0.734375 40.203125 -0.578125 L 40 -0.484375 L 39.796875 -0.40625 C 38.953125 0.25 37.925781 0.40625 36.71875 0.0625 L 36.109375 -0.03125 L 35.5 -0.0625 C 34.84375 -0.0820312 34.054688 -0.289062 33.140625 -0.6875 C 32.898438 -0.789062 32.664062 -0.984375 32.4375 -1.265625 C 31.300781 -2.710938 30.46875 -4.207031 29.9375 -5.75 L 28.859375 -8.578125 L 27.765625 -11.40625 C 27.285156 -12.613281 26.785156 -14.140625 26.265625 -15.984375 C 26.066406 -16.734375 25.785156 -17.425781 25.421875 -18.0625 L 25.21875 -18.53125 L 25 -18.984375 L 24.90625 -19.21875 L 24.828125 -19.453125 C 24.742188 -19.628906 24.644531 -19.765625 24.53125 -19.859375 C 24.394531 -19.773438 24.316406 -19.671875 24.296875 -19.546875 L 24.265625 -19.34375 L 24.265625 -19.171875 C 24.054688 -17.296875 23.664062 -15.117188 23.09375 -12.640625 C 22.9375 -11.953125 22.78125 -11.085938 22.625 -10.046875 L 22.1875 -7.453125 L 21.90625 -5.59375 L 21.59375 -3.78125 C 21.4375 -3.03125 21.300781 -2.179688 21.1875 -1.234375 C 21.09375 -0.390625 20.945312 0.492188 20.75 1.421875 C 20.539062 2.421875 19.925781 2.84375 18.90625 2.6875 L 18.5625 2.625 L 18.234375 2.5625 C 17.773438 2.5625 17.398438 2.429688 17.109375 2.171875 C 16.847656 1.921875 16.4375 1.742188 15.875 1.640625 C 15.0625 1.492188 14.472656 1.273438 14.109375 0.984375 C 14.015625 0.890625 13.890625 0.820312 13.734375 0.78125 L 13.28125 0.6875 C 12.664062 0.613281 12.222656 0.257812 11.953125 -0.375 C 10.660156 -3.300781 9.785156 -5.765625 9.328125 -7.765625 C 8.941406 -9.441406 8.554688 -10.851562 8.171875 -12 C 7.898438 -12.769531 7.609375 -13.722656 7.296875 -14.859375 L 6.546875 -17.71875 C 6.085938 -19.46875 5.703125 -20.804688 5.390625 -21.734375 C 4.992188 -22.941406 4.660156 -24.351562 4.390625 -25.96875 C 4.210938 -27.1875 3.953125 -28.554688 3.609375 -30.078125 L 2.65625 -34.109375 L 2.171875 -36.1875 L 1.765625 -38.265625 L 1.46875 -39.59375 L 1.125 -40.890625 L 0.953125 -41.359375 L 0.71875 -41.828125 L 0.515625 -42.21875 L 0.34375 -42.625 C 0.113281 -43.4375 0.328125 -44.050781 0.984375 -44.46875 C 1.441406 -44.78125 1.988281 -45.1875 2.625 -45.6875 C 3.257812 -46.1875 4.175781 -46.597656 5.375 -46.921875 C 6.40625 -47.191406 7.421875 -47.050781 8.421875 -46.5 C 9.410156 -45.9375 10.03125 -45.175781 10.28125 -44.21875 C 10.5625 -43.15625 11.078125 -42.171875 11.828125 -41.265625 C 12.328125 -40.648438 12.703125 -39.882812 12.953125 -38.96875 L 13.65625 -36.65625 L 14.34375 -34.34375 L 14.609375 -33.484375 L 15.609375 -29.5 L 16.5625 -25.515625 L 17.484375 -21.296875 L 18.390625 -17.0625 L 18.96875 -14.265625 C 19.175781 -13.179688 19.335938 -12.207031 19.453125 -11.34375 Z M 19.453125 -11.34375 "/></g></g></g></svg>