<svg xmlns="http://www.w3.org/2000/svg" xmlns:xlink="http://www.w3.org/1999/xlink" width="48" zoomAndPan="magnify" viewBox="0 0 36 36.000001" height="48" preserveAspectRatio="xMidYMid meet" version="1.0"><defs><clipPath id="10821504f9"><path d="M 0.488281 0 L 35.511719 0 L 35.511719 35.027344 L 0.488281 35.027344 Z M 0.488281 0 " clip-rule="nonzero"/></clipPath></defs><g clip-path="url(#10821504f9)"><path fill="#000000" d="M 18 0 C 17.425781 0 16.855469 0.0273438 16.285156 0.0859375 C 15.710938 0.140625 15.144531 0.226562 14.582031 0.335938 C 14.019531 0.449219 13.464844 0.585938 12.917969 0.753906 C 12.367188 0.921875 11.828125 1.113281 11.296875 1.332031 C 10.769531 1.550781 10.25 1.796875 9.746094 2.066406 C 9.238281 2.339844 8.746094 2.632812 8.269531 2.953125 C 7.792969 3.269531 7.332031 3.613281 6.890625 3.976562 C 6.445312 4.339844 6.023438 4.722656 5.617188 5.128906 C 5.210938 5.535156 4.824219 5.960938 4.460938 6.402344 C 4.097656 6.847656 3.757812 7.304688 3.4375 7.785156 C 3.121094 8.261719 2.824219 8.75 2.554688 9.257812 C 2.285156 9.761719 2.039062 10.28125 1.820312 10.8125 C 1.601562 11.339844 1.40625 11.878906 1.242188 12.429688 C 1.074219 12.976562 0.933594 13.535156 0.824219 14.097656 C 0.710938 14.660156 0.628906 15.226562 0.570312 15.796875 C 0.515625 16.367188 0.488281 16.941406 0.488281 17.511719 C 0.488281 18.085938 0.515625 18.660156 0.570312 19.230469 C 0.628906 19.800781 0.710938 20.367188 0.824219 20.929688 C 0.933594 21.492188 1.074219 22.046875 1.242188 22.597656 C 1.40625 23.144531 1.601562 23.6875 1.820312 24.214844 C 2.039062 24.746094 2.285156 25.261719 2.554688 25.769531 C 2.824219 26.273438 3.121094 26.765625 3.4375 27.242188 C 3.757812 27.71875 4.097656 28.179688 4.460938 28.625 C 4.824219 29.066406 5.210938 29.492188 5.617188 29.898438 C 6.023438 30.304688 6.445312 30.6875 6.890625 31.050781 C 7.332031 31.414062 7.792969 31.757812 8.269531 32.074219 C 8.746094 32.394531 9.238281 32.6875 9.746094 32.960938 C 10.25 33.230469 10.769531 33.472656 11.296875 33.695312 C 11.828125 33.914062 12.367188 34.105469 12.917969 34.273438 C 13.464844 34.4375 14.019531 34.578125 14.582031 34.691406 C 15.144531 34.800781 15.710938 34.886719 16.285156 34.941406 C 16.855469 35 17.425781 35.027344 18 35.027344 C 18.574219 35.027344 19.144531 35 19.714844 34.941406 C 20.289062 34.886719 20.855469 34.800781 21.417969 34.691406 C 21.980469 34.578125 22.535156 34.4375 23.082031 34.273438 C 23.632812 34.105469 24.171875 33.914062 24.703125 33.695312 C 25.230469 33.472656 25.75 33.230469 26.253906 32.960938 C 26.761719 32.6875 27.253906 32.394531 27.730469 32.074219 C 28.207031 31.757812 28.667969 31.414062 29.109375 31.050781 C 29.554688 30.6875 29.976562 30.304688 30.382812 29.898438 C 30.789062 29.492188 31.175781 29.066406 31.539062 28.625 C 31.902344 28.179688 32.242188 27.71875 32.5625 27.242188 C 32.878906 26.765625 33.175781 26.273438 33.445312 25.769531 C 33.714844 25.261719 33.960938 24.746094 34.179688 24.214844 C 34.398438 23.6875 34.59375 23.144531 34.757812 22.597656 C 34.925781 22.046875 35.066406 21.492188 35.175781 20.929688 C 35.289062 20.367188 35.371094 19.800781 35.429688 19.230469 C 35.484375 18.660156 35.511719 18.085938 35.511719 17.511719 C 35.511719 16.941406 35.484375 16.367188 35.429688 15.796875 C 35.371094 15.226562 35.289062 14.660156 35.175781 14.097656 C 35.066406 13.535156 34.925781 12.976562 34.757812 12.429688 C 34.59375 11.878906 34.398438 11.339844 34.179688 10.8125 C 33.960938 10.28125 33.714844 9.761719 33.445312 9.257812 C 33.175781 8.75 32.878906 8.261719 32.5625 7.785156 C 32.242188 7.304688 31.902344 6.847656 31.539062 6.402344 C 31.175781 5.960938 30.789062 5.535156 30.382812 5.128906 C 29.976562 4.722656 29.554688 4.339844 29.109375 3.976562 C 28.667969 3.613281 28.207031 3.269531 27.730469 2.953125 C 27.253906 2.632812 26.761719 2.339844 26.253906 2.066406 C 25.75 1.796875 25.230469 1.550781 24.703125 1.332031 C 24.171875 1.113281 23.632812 0.921875 23.082031 0.753906 C 22.535156 0.585938 21.980469 0.449219 21.417969 0.335938 C 20.855469 0.226562 20.289062 0.140625 19.714844 0.0859375 C 19.144531 0.0273438 18.574219 0 18 0 Z M 28.785156 18.316406 C 28.671875 18.585938 28.511719 18.824219 28.304688 19.03125 L 21.007812 26.328125 C 20.820312 26.59375 20.585938 26.808594 20.300781 26.96875 C 20.019531 27.132812 19.714844 27.226562 19.390625 27.253906 C 19.066406 27.277344 18.753906 27.234375 18.445312 27.121094 C 18.140625 27.007812 17.875 26.832031 17.648438 26.597656 C 17.421875 26.367188 17.253906 26.097656 17.148438 25.789062 C 17.039062 25.480469 17.003906 25.164062 17.039062 24.84375 C 17.070312 24.519531 17.171875 24.21875 17.339844 23.9375 C 17.507812 23.660156 17.730469 23.429688 18 23.25 L 21.546875 19.703125 L 9.242188 19.703125 C 8.953125 19.703125 8.671875 19.648438 8.40625 19.535156 C 8.136719 19.425781 7.902344 19.265625 7.695312 19.0625 C 7.488281 18.855469 7.332031 18.621094 7.21875 18.351562 C 7.109375 18.082031 7.054688 17.804688 7.054688 17.511719 C 7.054688 17.222656 7.109375 16.945312 7.21875 16.675781 C 7.332031 16.40625 7.488281 16.171875 7.695312 15.964844 C 7.902344 15.761719 8.136719 15.601562 8.40625 15.492188 C 8.671875 15.378906 8.953125 15.324219 9.242188 15.324219 L 21.472656 15.324219 L 18 11.777344 C 17.863281 11.691406 17.734375 11.585938 17.617188 11.472656 C 17.503906 11.355469 17.402344 11.226562 17.316406 11.089844 C 17.226562 10.949219 17.15625 10.800781 17.105469 10.648438 C 17.050781 10.492188 17.015625 10.332031 16.996094 10.167969 C 16.976562 10.007812 16.976562 9.84375 16.996094 9.679688 C 17.015625 9.515625 17.050781 9.359375 17.105469 9.203125 C 17.160156 9.050781 17.230469 8.902344 17.320312 8.761719 C 17.40625 8.625 17.507812 8.496094 17.625 8.382812 C 17.738281 8.265625 17.867188 8.164062 18.007812 8.074219 C 18.144531 7.988281 18.292969 7.917969 18.445312 7.863281 C 18.601562 7.808594 18.761719 7.773438 18.921875 7.753906 C 19.085938 7.734375 19.25 7.734375 19.414062 7.753906 C 19.574219 7.769531 19.734375 7.808594 19.890625 7.859375 C 20.046875 7.914062 20.191406 7.984375 20.332031 8.070312 C 20.46875 8.160156 20.597656 8.261719 20.714844 8.375 C 20.832031 8.492188 20.933594 8.617188 21.019531 8.757812 L 28.320312 16.054688 C 28.527344 16.261719 28.6875 16.5 28.800781 16.769531 C 28.996094 17.285156 28.992188 17.800781 28.785156 18.316406 Z M 28.785156 18.316406 " fill-opacity="1" fill-rule="nonzero"/></g></svg>